<?xml version="1.0" encoding="UTF-8" standalone="no"?>
<!-- Created with Inkscape (http://www.inkscape.org/) -->
<svg
   xmlns:svg="http://www.w3.org/2000/svg"
   xmlns="http://www.w3.org/2000/svg"
   version="1.0"
   width="183.22903"
   height="183.22903"
   id="svg3788">
  <defs
     id="defs3790" />
  <g
     transform="translate(-225.60075,-475.19072)"
     id="layer1">
    <g
       id="g3890">
      <path
         d="M 408.82979 566.80524 A 91.614517 91.614517 0 1 1  225.60075,566.80524 A 91.614517 91.614517 0 1 1  408.82979 566.80524 z"
         style="fill:#ffff00;fill-opacity:1;stroke:none;stroke-width:2;stroke-linecap:butt;stroke-linejoin:miter;stroke-miterlimit:4;stroke-dasharray:none;stroke-dashoffset:0;stroke-opacity:1"
         id="path3869" />
      <g
         transform="translate(3.8936474,0)"
         id="g3875">
        <path
           d="M 294.31163 535.19824 A 5.0387983 18.322903 0 1 1  284.23403,535.19824 A 5.0387983 18.322903 0 1 1  294.31163 535.19824 z"
           transform="matrix(1.1079545,0,0,1.0625,-31.228318,-33.449892)"
           style="fill:#000000;fill-opacity:1;stroke:none;stroke-width:2;stroke-linecap:butt;stroke-linejoin:miter;stroke-miterlimit:4;stroke-dasharray:none;stroke-dashoffset:0;stroke-opacity:1"
           id="path3871" />
        <path
           d="M 294.31163 535.19824 A 5.0387983 18.322903 0 1 1  284.23403,535.19824 A 5.0387983 18.322903 0 1 1  294.31163 535.19824 z"
           transform="matrix(1.1079545,0,0,1.0625,16.869304,-33.449892)"
           style="fill:#000000;fill-opacity:1;stroke:none;stroke-width:2;stroke-linecap:butt;stroke-linejoin:miter;stroke-miterlimit:4;stroke-dasharray:none;stroke-dashoffset:0;stroke-opacity:1"
           id="path3873" />
      </g>
      <g
         transform="translate(0.584611,0)"
         id="g3885">
        <path
           d="M 356.15144,595.66381 C 333.30478,627.06741 298.41142,626.80161 276.90488,595.20574 C 295.4797,629.34328 337.08445,629.53555 356.15144,595.66381 z "
           style="fill:#000000;fill-rule:evenodd;stroke:#000000;stroke-width:1px;stroke-linecap:butt;stroke-linejoin:miter;stroke-opacity:1"
           id="path3879" />
        <path
           d="M 269.34668,599.55743 C 270.61505,598.1017 275.55887,595.6328 277.65006,596.09285 C 277.69529,593.63582 280.72023,589.57879 281.71464,589.02176"
           style="fill:none;fill-rule:evenodd;stroke:#000000;stroke-width:1.5;stroke-linecap:round;stroke-linejoin:round;marker-start:none;stroke-miterlimit:4;stroke-dasharray:none;stroke-opacity:1"
           id="path3881" />
        <path
           d="M 363.91464,599.55743 C 362.64627,598.1017 357.70245,595.6328 355.61126,596.09285 C 355.56603,593.63582 352.54109,589.57879 351.54668,589.02176"
           style="fill:none;fill-rule:evenodd;stroke:#000000;stroke-width:1.5;stroke-linecap:round;stroke-linejoin:round;marker-start:none;stroke-miterlimit:4;stroke-dasharray:none;stroke-opacity:1"
           id="path3883" />
      </g>
    </g>
  </g>
</svg>
