<?xml version="1.0" encoding="UTF-8" standalone="no"?>
<!-- Created with Inkscape (http://www.inkscape.org/) -->

<svg
   xmlns:dc="http://purl.org/dc/elements/1.1/"
   xmlns:cc="http://creativecommons.org/ns#"
   xmlns:rdf="http://www.w3.org/1999/02/22-rdf-syntax-ns#"
   xmlns:svg="http://www.w3.org/2000/svg"
   xmlns="http://www.w3.org/2000/svg"
   xmlns:sodipodi="http://sodipodi.sourceforge.net/DTD/sodipodi-0.dtd"
   xmlns:inkscape="http://www.inkscape.org/namespaces/inkscape"
   id="svg2"
   sodipodi:version="0.32"
   inkscape:version="0.47pre4 r22446"
   width="736"
   height="736"
   version="1.0"
   inkscape:output_extension="org.inkscape.output.svg.inkscape"
   sodipodi:docname="SurprisedSmiley.svg">
  <metadata
     id="metadata7">
    <rdf:RDF>
      <cc:Work
         rdf:about="">
        <dc:format>image/svg+xml</dc:format>
        <dc:type
           rdf:resource="http://purl.org/dc/dcmitype/StillImage" />
      </cc:Work>
    </rdf:RDF>
  </metadata>
  <defs
     id="defs5">
    <inkscape:perspective
       sodipodi:type="inkscape:persp3d"
       inkscape:vp_x="0 : 368 : 1"
       inkscape:vp_y="0 : 1000 : 0"
       inkscape:vp_z="736 : 368 : 1"
       inkscape:persp3d-origin="368 : 245.33333 : 1"
       id="perspective14" />
    <filter
       inkscape:collect="always"
       id="filter3654">
      <feGaussianBlur
         inkscape:collect="always"
         stdDeviation="1.45"
         id="feGaussianBlur3656" />
    </filter>
  </defs>
  <sodipodi:namedview
     inkscape:window-height="751"
     inkscape:window-width="1280"
     inkscape:pageshadow="2"
     inkscape:pageopacity="0.0"
     guidetolerance="10.0"
     gridtolerance="10.0"
     objecttolerance="10.0"
     borderopacity="1.0"
     bordercolor="#666666"
     pagecolor="#ffffff"
     id="base"
     inkscape:zoom="0.70735753"
     inkscape:cx="323.856"
     inkscape:cy="367.02645"
     inkscape:window-x="0"
     inkscape:window-y="25"
     inkscape:current-layer="svg2"
     showgrid="true"
     inkscape:window-maximized="1">
    <inkscape:grid
       id="GridFromPre046Settings"
       type="xygrid"
       originx="0px"
       originy="0px"
       spacingx="5px"
       spacingy="5px"
       color="#0000ff"
       empcolor="#0000ff"
       opacity="0.2"
       empopacity="0.4"
       empspacing="5" />
  </sodipodi:namedview>
  <path
     sodipodi:type="arc"
     style="fill:#fede58;fill-opacity:1;stroke:#000000;stroke-width:19;stroke-linejoin:miter;stroke-miterlimit:4;stroke-dasharray:none;stroke-dashoffset:0;stroke-opacity:1"
     id="path4109"
     sodipodi:cx="369.94708"
     sodipodi:cy="374.81482"
     sodipodi:rx="344.63492"
     sodipodi:ry="344.63492"
     d="M 714.582 374.81482 A 344.63492 344.63492 0 1 1  25.312164,374.81482 A 344.63492 344.63492 0 1 1  714.582 374.81482 z"
     transform="translate(0,-5.8412698)" />
  <path
     style="fill:#ffffff;fill-opacity:1;fill-rule:evenodd;stroke:#000000;stroke-width:19;stroke-linecap:butt;stroke-linejoin:miter;stroke-opacity:1;stroke-miterlimit:4;stroke-dasharray:none"
     d="M 87.619048,334.89947 C 38.751798,108.17243 301.47688,147.46274 245.33333,334.89947 L 87.619048,334.89947 z "
     id="path5080"
     sodipodi:nodetypes="ccc" />
  <path
     sodipodi:type="arc"
     style="fill:#000000;fill-opacity:1;stroke:none"
     id="path13506"
     sodipodi:cx="206.39154"
     sodipodi:cy="232.19048"
     sodipodi:rx="55.005291"
     sodipodi:ry="55.005291"
     d="m 261.39683,232.19048 a 55.005291,55.005291 0 1 1 -110.01058,0 55.005291,55.005291 0 1 1 110.01058,0 z"
     transform="translate(-36.38625,56.804234)" />
  <path
     style="fill:#ffffff;fill-opacity:1;fill-rule:evenodd;stroke:#000000;stroke-width:19;stroke-linecap:butt;stroke-linejoin:miter;stroke-opacity:1;stroke-miterlimit:4;stroke-dasharray:none"
     d="M 389.41799,333.92593 C 350.32886,115.69483 627.0811,138.02952 580.2328,335.87302 L 389.41799,333.92593 z "
     id="path6059"
     sodipodi:nodetypes="ccc" />
  <path
     transform="translate(277.60317,56.814816)"
     d="m 261.39683,232.19048 a 55.005291,55.005291 0 1 1 -110.01058,0 55.005291,55.005291 0 1 1 110.01058,0 z"
     sodipodi:ry="55.005291"
     sodipodi:rx="55.005291"
     sodipodi:cy="232.19048"
     sodipodi:cx="206.39154"
     id="path8001"
     style="fill:#000000;fill-opacity:1;stroke:none"
     sodipodi:type="arc" />
  <path
     style="fill:#871945;fill-opacity:1;fill-rule:evenodd;stroke:none;stroke-width:19;stroke-linecap:butt;stroke-linejoin:miter;stroke-miterlimit:4;stroke-dasharray:none;stroke-opacity:1"
     d="M 535.78935,601.19189 C 543.35053,545.40142 487.24858,461.21827 449.73525,433.76659 C 408.07081,403.27721 357.92094,395.39443 311.19566,404.12069 C 217.74507,421.5732 137.38011,506.45418 170.80079,603.09252 L 353.86359,601.28942 L 535.78935,601.19189 z "
     id="path3136"
     sodipodi:nodetypes="cssccc" />
  <path
     style="fill:#fbc0df;fill-opacity:1;fill-rule:evenodd;stroke:none;stroke-width:1px;stroke-linecap:butt;stroke-linejoin:miter;stroke-opacity:1"
     d="M 358.68542,602.59119 C 376.30428,480.37023 580.85203,495.49769 526.65239,602.76108 C 458.44248,603.74942 444.73186,605.76613 358.68542,602.59119 z "
     id="path9943"
     sodipodi:nodetypes="ccc" />
  <path
     sodipodi:nodetypes="csscc"
     id="path10922"
     d="M 535.70899,611 C 543.31249,555.22986 487.27877,461.5457 449.78633,433.99333 408.14509,403.39212 358.00129,395.37474 311.26946,403.97558 217.80581,421.17725 141.65271,514.27199 175,611 c 110.98413,-25 284.77249,-17.52381 360.70899,0 z"
     style="fill:none;fill-opacity:1;fill-rule:evenodd;stroke:#000000;stroke-width:15.69122219;stroke-linecap:butt;stroke-linejoin:miter;stroke-miterlimit:4;stroke-dasharray:none;stroke-opacity:1" />
  <path
     style="fill:#0000b5;fill-opacity:1;stroke:#204bb8;stroke-width:1px;stroke-linecap:butt;stroke-linejoin:miter;stroke-opacity:1;filter:url(#filter3654)"
     d="m 575,316 c -10,50 -20,45 -25,70 0,15 10,25 25,25 15,0 25,-10 25,-25 -5,-25 -15,-20 -25,-70 z"
     id="path2820"
     sodipodi:nodetypes="ccccc"
     transform="matrix(1.5,0,0,1.3571429,-275,-112.85714)" />
</svg>
